<svg width="40" height="40" viewBox="0 0 40 40" fill="none" xmlns="http://www.w3.org/2000/svg">
<path fill-rule="evenodd" clip-rule="evenodd" d="M4.00033 8C3.6467 8 3.30756 8.14048 3.05752 8.39052C2.80747 8.64057 2.66699 8.97971 2.66699 9.33333C2.66699 9.68696 2.80747 10.0261 3.05752 10.2761C3.30756 10.5262 3.6467 10.6667 4.00033 10.6667H36.0003C36.354 10.6667 36.6931 10.5262 36.9431 10.2761C37.1932 10.0261 37.3337 9.68696 37.3337 9.33333C37.3337 8.97971 37.1932 8.64057 36.9431 8.39052C36.6931 8.14048 36.354 8 36.0003 8H4.00033ZM2.66699 20C2.66699 19.6464 2.80747 19.3072 3.05752 19.0572C3.30756 18.8071 3.6467 18.6667 4.00033 18.6667H36.0003C36.354 18.6667 36.6931 18.8071 36.9431 19.0572C37.1932 19.3072 37.3337 19.6464 37.3337 20C37.3337 20.3536 37.1932 20.6928 36.9431 20.9428C36.6931 21.1929 36.354 21.3333 36.0003 21.3333H4.00033C3.6467 21.3333 3.30756 21.1929 3.05752 20.9428C2.80747 20.6928 2.66699 20.3536 2.66699 20ZM2.66699 30.6667C2.66699 30.313 2.80747 29.9739 3.05752 29.7239C3.30756 29.4738 3.6467 29.3333 4.00033 29.3333H36.0003C36.354 29.3333 36.6931 29.4738 36.9431 29.7239C37.1932 29.9739 37.3337 30.313 37.3337 30.6667C37.3337 31.0203 37.1932 31.3594 36.9431 31.6095C36.6931 31.8595 36.354 32 36.0003 32H4.00033C3.6467 32 3.30756 31.8595 3.05752 31.6095C2.80747 31.3594 2.66699 31.0203 2.66699 30.6667Z" fill="#36A74C"/>
</svg>
